<svg width="48" height="48" viewBox="0 0 48 48" fill="none" xmlns="http://www.w3.org/2000/svg">
<g clip-path="url(#clip0_2357_9206)">
<path d="M26.9801 10.96C29.1801 10.96 30.9801 9.16001 30.9801 6.96001C30.9801 4.76001 29.1801 2.96001 26.9801 2.96001C24.7801 2.96001 22.9801 4.76001 22.9801 6.96001C22.9801 9.16001 24.7801 10.96 26.9801 10.96ZM20.6401 34.96L21.7801 29.96L25.9801 33.96V43.96C25.9801 45.06 26.8801 45.96 27.9801 45.96C29.0801 45.96 29.9801 45.06 29.9801 43.96V32.68C29.9801 31.58 29.5401 30.54 28.7401 29.78L25.7801 26.96L26.9801 20.96C29.1201 23.44 32.2201 25.22 35.7001 25.78C36.9001 25.96 37.9801 25 37.9801 23.78C37.9801 22.8 37.2601 21.98 36.2801 21.82C33.2401 21.32 30.7201 19.52 29.3801 17.16L27.3801 13.96C26.5801 12.76 25.3801 11.96 23.9801 11.96C23.3801 11.96 22.9801 12.16 22.3801 12.16L14.4201 15.52C12.9401 16.16 11.9801 17.6 11.9801 19.22V23.96C11.9801 25.06 12.8801 25.96 13.9801 25.96C15.0801 25.96 15.9801 25.06 15.9801 23.96V19.16L19.5801 17.76L16.3801 33.96L8.54008 32.36C7.46008 32.14 6.40008 32.84 6.18008 33.92V34C5.96008 35.08 6.66008 36.14 7.74008 36.36L15.9601 38C18.0801 38.42 20.1601 37.08 20.6401 34.96Z" fill="#0689FF"/>
</g>
<defs>
<clipPath id="clip0_2357_9206">
<rect width="48" height="48" fill="white"/>
</clipPath>
</defs>
</svg>
