<svg width="25" height="24" viewBox="0 0 25 24" fill="none" xmlns="http://www.w3.org/2000/svg">
<path d="M6.875 13L7.65946 14.5689C7.92495 15.0999 8.05769 15.3654 8.23503 15.5954C8.39239 15.7996 8.57541 15.9826 8.77955 16.14C9.00962 16.3173 9.2751 16.4501 9.80608 16.7155L11.375 17.5L9.80608 18.2845C9.2751 18.5499 9.00962 18.6827 8.77955 18.86C8.57541 19.0174 8.39239 19.2004 8.23503 19.4046C8.05769 19.6346 7.92495 19.9001 7.65946 20.4311L6.875 22L6.09054 20.4311C5.82505 19.9001 5.69231 19.6346 5.51497 19.4046C5.35761 19.2004 5.17459 19.0174 4.97045 18.86C4.74038 18.6827 4.4749 18.5499 3.94392 18.2845L2.375 17.5L3.94392 16.7155C4.4749 16.4501 4.74038 16.3173 4.97045 16.14C5.17459 15.9826 5.35761 15.7996 5.51497 15.5954C5.69231 15.3654 5.82505 15.0999 6.09054 14.5689L6.875 13Z" stroke="#64748B" stroke-width="2" stroke-linecap="round" stroke-linejoin="round"/>
<path d="M15.375 2L16.5536 5.06442C16.8356 5.79765 16.9766 6.16426 17.1959 6.47264C17.3903 6.74595 17.629 6.98475 17.9024 7.17909C18.2107 7.39836 18.5774 7.53937 19.3106 7.82138L22.375 9L19.3106 10.1786C18.5774 10.4606 18.2107 10.6016 17.9024 10.8209C17.629 11.0153 17.3903 11.254 17.1959 11.5274C16.9766 11.8357 16.8356 12.2024 16.5536 12.9356L15.375 16L14.1964 12.9356C13.9144 12.2024 13.7734 11.8357 13.5541 11.5274C13.3597 11.254 13.121 11.0153 12.8476 10.8209C12.5393 10.6016 12.1726 10.4606 11.4394 10.1786L8.375 9L11.4394 7.82138C12.1726 7.53937 12.5393 7.39836 12.8476 7.17909C13.121 6.98475 13.3597 6.74595 13.5541 6.47264C13.7734 6.16426 13.9144 5.79765 14.1964 5.06442L15.375 2Z" stroke="#64748B" stroke-width="2" stroke-linecap="round" stroke-linejoin="round"/>
</svg>
