<svg width="25" height="24" viewBox="0 0 25 24" fill="none" xmlns="http://www.w3.org/2000/svg">
<path d="M9.025 3H5.225C4.66495 3 4.38492 3 4.17101 3.10899C3.98285 3.20487 3.82987 3.35785 3.73399 3.54601C3.625 3.75992 3.625 4.03995 3.625 4.6V8.4C3.625 8.96005 3.625 9.24008 3.73399 9.45399C3.82987 9.64215 3.98285 9.79513 4.17101 9.89101C4.38492 10 4.66495 10 5.225 10H9.025C9.58505 10 9.86508 10 10.079 9.89101C10.2672 9.79513 10.4201 9.64215 10.516 9.45399C10.625 9.24008 10.625 8.96005 10.625 8.4V4.6C10.625 4.03995 10.625 3.75992 10.516 3.54601C10.4201 3.35785 10.2672 3.20487 10.079 3.10899C9.86508 3 9.58505 3 9.025 3Z" stroke="#64748B" stroke-width="2" stroke-linecap="round" stroke-linejoin="round"/>
<path d="M20.025 3H16.225C15.6649 3 15.3849 3 15.171 3.10899C14.9828 3.20487 14.8299 3.35785 14.734 3.54601C14.625 3.75992 14.625 4.03995 14.625 4.6V8.4C14.625 8.96005 14.625 9.24008 14.734 9.45399C14.8299 9.64215 14.9828 9.79513 15.171 9.89101C15.3849 10 15.6649 10 16.225 10H20.025C20.5851 10 20.8651 10 21.079 9.89101C21.2672 9.79513 21.4201 9.64215 21.516 9.45399C21.625 9.24008 21.625 8.96005 21.625 8.4V4.6C21.625 4.03995 21.625 3.75992 21.516 3.54601C21.4201 3.35785 21.2672 3.20487 21.079 3.10899C20.8651 3 20.5851 3 20.025 3Z" stroke="#64748B" stroke-width="2" stroke-linecap="round" stroke-linejoin="round"/>
<path d="M20.025 14H16.225C15.6649 14 15.3849 14 15.171 14.109C14.9828 14.2049 14.8299 14.3578 14.734 14.546C14.625 14.7599 14.625 15.0399 14.625 15.6V19.4C14.625 19.9601 14.625 20.2401 14.734 20.454C14.8299 20.6422 14.9828 20.7951 15.171 20.891C15.3849 21 15.6649 21 16.225 21H20.025C20.5851 21 20.8651 21 21.079 20.891C21.2672 20.7951 21.4201 20.6422 21.516 20.454C21.625 20.2401 21.625 19.9601 21.625 19.4V15.6C21.625 15.0399 21.625 14.7599 21.516 14.546C21.4201 14.3578 21.2672 14.2049 21.079 14.109C20.8651 14 20.5851 14 20.025 14Z" stroke="#64748B" stroke-width="2" stroke-linecap="round" stroke-linejoin="round"/>
<path d="M9.025 14H5.225C4.66495 14 4.38492 14 4.17101 14.109C3.98285 14.2049 3.82987 14.3578 3.73399 14.546C3.625 14.7599 3.625 15.0399 3.625 15.6V19.4C3.625 19.9601 3.625 20.2401 3.73399 20.454C3.82987 20.6422 3.98285 20.7951 4.17101 20.891C4.38492 21 4.66495 21 5.225 21H9.025C9.58505 21 9.86508 21 10.079 20.891C10.2672 20.7951 10.4201 20.6422 10.516 20.454C10.625 20.2401 10.625 19.9601 10.625 19.4V15.6C10.625 15.0399 10.625 14.7599 10.516 14.546C10.4201 14.3578 10.2672 14.2049 10.079 14.109C9.86508 14 9.58505 14 9.025 14Z" stroke="#64748B" stroke-width="2" stroke-linecap="round" stroke-linejoin="round"/>
</svg>
