<svg width="24" height="24" viewBox="0 0 24 24" fill="none" xmlns="http://www.w3.org/2000/svg">
<path fill-rule="evenodd" clip-rule="evenodd" d="M4.00003 5C4.55231 5 5.00003 5.44772 5.00003 6C5.00003 9.86599 8.13403 13 12 13C15.866 13 19 9.86599 19 6C19 5.44772 19.4477 5 20 5C20.5523 5 21 5.44772 21 6C21 7.87864 20.4244 9.62285 19.44 11.0659L21.7682 13.8598C22.1218 14.2841 22.0645 14.9147 21.6402 15.2682C21.2159 15.6218 20.5854 15.5645 20.2318 15.1402L18.1167 12.6021C17.3044 13.355 16.3528 13.9599 15.305 14.3738L16.8945 17.5528C17.1414 18.0468 16.9412 18.6474 16.4472 18.8944C15.9533 19.1414 15.3526 18.9412 15.1056 18.4472L13.333 14.902C12.898 14.9665 12.4529 15 12 15C11.5471 15 11.102 14.9665 10.6671 14.902L8.89445 18.4472C8.64746 18.9412 8.04679 19.1414 7.55281 18.8944C7.05883 18.6474 6.85861 18.0468 7.1056 17.5528L8.69509 14.3738C7.64724 13.9599 6.69569 13.355 5.88336 12.6021L3.76825 15.1402C3.41468 15.5645 2.78412 15.6218 2.35984 15.2682C1.93556 14.9147 1.87824 14.2841 2.2318 13.8598L4.56009 11.0659C3.57563 9.62285 3.00003 7.87864 3.00003 6C3.00003 5.44772 3.44774 5 4.00003 5Z" fill="black"/>
</svg>
