<svg width="65" height="64" viewBox="0 0 65 64" fill="none" xmlns="http://www.w3.org/2000/svg">
<path d="M43.1667 45.3333L56.5 32M56.5 32L43.1667 18.6667M56.5 32H24.5M32.5 45.3333C32.5 47.8133 32.5 49.0532 32.2274 50.0706C31.4877 52.8313 29.3313 54.9877 26.5706 55.7274C25.5532 56 24.3133 56 21.8333 56H20.5C16.7725 56 14.9087 56 13.4385 55.391C11.4783 54.5791 9.92092 53.0217 9.10896 51.0615C8.5 49.5913 8.5 47.7275 8.5 44V20C8.5 16.2725 8.5 14.4087 9.10897 12.9385C9.92092 10.9783 11.4783 9.42092 13.4385 8.60896C14.9087 8 16.7725 8 20.5 8H21.8333C24.3133 8 25.5532 8 26.5706 8.27259C29.3313 9.01233 31.4877 11.1687 32.2274 13.9294C32.5 14.9468 32.5 16.1867 32.5 18.6667" stroke="#ED2115" stroke-width="2" stroke-linecap="round" stroke-linejoin="round"/>
</svg>
