<svg width="137" height="32" viewBox="0 0 137 32" fill="none" xmlns="http://www.w3.org/2000/svg">
<path d="M130.69 15.3601H127.656C127.251 15.8455 126.914 16.5197 126.644 17.3826C126.402 18.2456 126.28 19.0816 126.28 19.8906H132.065C132.119 19.0816 132.011 18.2456 131.741 17.3826C131.472 16.4927 131.121 15.8185 130.69 15.3601ZM136.191 27.536V31.7834H125.916C124.029 30.5159 122.694 28.9518 121.912 27.091C121.156 25.2033 120.779 23.302 120.779 21.3873C120.779 16.9646 122.451 13.5398 125.795 11.1127H132.348C134.155 12.4341 135.382 13.8364 136.029 15.3196C136.676 16.8028 137 18.2995 137 19.8097C137 21.3199 136.879 22.6144 136.636 23.6931H126.563C126.644 24.3133 126.874 25.028 127.251 25.837C127.656 26.6191 128.087 27.1854 128.546 27.536H136.191Z" fill="#2C0B6A"/>
<path d="M109.794 11.1127H118.734V15.3601H112.423L116.266 21.0637C117.992 23.5178 118.95 25.2033 119.138 26.1202C119.246 26.5516 119.3 26.9966 119.3 27.4551C119.3 29.3698 118.586 30.8125 117.156 31.7834H106.841V27.536H114.244L109.916 21.1851C109.727 20.8884 109.43 20.4704 109.026 19.9311C108.648 19.3917 108.351 18.9603 108.136 18.6366C107.92 18.2861 107.772 18.0299 107.691 17.8681C107.61 17.7063 107.502 17.504 107.367 17.2613C107.232 16.9916 107.138 16.7624 107.084 16.5736C106.976 16.0612 106.922 15.6432 106.922 15.3196C106.922 13.351 107.879 11.9487 109.794 11.1127Z" fill="#2C0B6A"/>
<path d="M99.1355 31.7834V11.1127H104.475V31.7834H99.1355ZM101.805 0L105.92 8.92828H97.6908L101.805 0Z" fill="#2C0B6A"/>
<path d="M79.6805 3.46729H90.4406C92.1396 4.03361 93.5824 5.08534 94.7689 6.6225C95.9825 8.13269 96.5893 9.99345 96.5893 12.2048C96.5893 15.8185 95.16 18.4748 92.3014 20.1737L96.387 31.7833H90.7238L87.2854 21.4682H85.1415V31.7833H79.6805V3.46729ZM85.1415 8.32146V16.9376H88.6203C89.0788 16.8297 89.5777 16.3713 90.117 15.5623C90.6833 14.7263 90.9665 13.7554 90.9665 12.6498C90.9665 11.5441 90.7238 10.5733 90.2384 9.73726C89.7799 8.90126 89.3215 8.42933 88.863 8.32146H85.1415Z" fill="#7630F7"/>
<path d="M68.2637 22.7626V15.36H65.4725V11.1126H68.2637V5.48987H73.6437V11.1126H76.9607V15.36H73.6437V24.0571C73.6437 25.7021 73.9269 26.8617 74.4932 27.5359H76.9607V31.7833H71.2166C69.7874 30.4619 68.9244 29.0326 68.6278 27.4955C68.385 26.201 68.2637 24.6234 68.2637 22.7626Z" fill="#2C0B6A"/>
<path d="M58.4142 31.7833V11.1126H63.7538V31.7833H58.4142ZM58.4142 3.46729H63.7538V8.92823H58.4142V3.46729Z" fill="#2C0B6A"/>
<path d="M39.4284 3.46729H44.768V12.5689C45.3613 12.0295 45.9141 11.652 46.4265 11.4362C46.9659 11.2205 47.7614 11.1126 48.8131 11.1126H52.0493C53.1819 12.2183 54.0718 13.6476 54.7191 15.4005C55.3663 17.1534 55.6899 19.0815 55.6899 21.185C55.6899 25.6886 54.3415 29.2214 51.6448 31.7833H47.8019C46.4804 31.7833 45.3748 31.2844 44.4848 30.2866L43.7567 31.7833H39.4284V3.46729ZM44.8084 27.5359H48.6918C49.6896 25.8369 50.1885 23.7739 50.1885 21.3468C50.1885 18.9197 49.6761 16.9241 48.6513 15.36H44.8084V27.5359Z" fill="#2C0B6A"/>
<path d="M30.8234 22.4391H26.4951C25.9288 23.1402 25.6456 24.0167 25.6456 25.0684C25.6456 26.1202 25.9423 26.9427 26.5356 27.536H30.8234V22.4391ZM22.1264 11.1127H32.1583C33.7764 12.0835 34.8416 13.2027 35.354 14.4701C35.8664 15.7107 36.1226 17.4096 36.1226 19.567V25.6347C36.1226 27.8731 36.1765 29.9226 36.2844 31.7834H31.6729L30.9448 30.3271C29.893 31.2979 28.4098 31.7834 26.4951 31.7834H23.9467C21.6544 30.2732 20.5083 28.1023 20.5083 25.2707C20.5083 22.4121 21.6814 20.1603 24.0276 18.5153H27.83C28.8818 18.5153 29.8661 18.8389 30.783 19.4861V17.4635C30.783 16.4118 30.3245 15.7107 29.4076 15.3601H22.1264V11.1127Z" fill="#2C0B6A"/>
<path d="M5.54185 31.7833H0V3.46729H5.54185V14.8746H12.0141V3.46729H17.5559V31.7833H12.0141V20.0524H5.54185V31.7833Z" fill="#2C0B6A"/>
</svg>
