<svg width="163" height="39" viewBox="0 0 163 39" fill="none" xmlns="http://www.w3.org/2000/svg">
<path d="M155.492 19.2593H151.882C151.401 19.8368 151 20.639 150.679 21.6657C150.39 22.6924 150.246 23.6871 150.246 24.6497H157.128C157.193 23.6871 157.064 22.6924 156.743 21.6657C156.422 20.6069 156.005 19.8047 155.492 19.2593ZM162.037 33.7459V38.7994H149.813C147.567 37.2914 145.979 35.4304 145.048 33.2165C144.15 30.9705 143.701 28.7085 143.701 26.4304C143.701 21.1684 145.69 17.0935 149.668 14.2058H157.465C159.615 15.778 161.075 17.4465 161.845 19.2112C162.615 20.9759 163 22.7566 163 24.5534C163 26.3502 162.856 27.8903 162.567 29.1737H150.583C150.679 29.9117 150.952 30.762 151.401 31.7245C151.882 32.655 152.396 33.3288 152.941 33.7459H162.037Z" fill="white"/>
<path d="M130.631 14.2058H141.267V19.2593H133.759L138.331 26.0454C140.385 28.9652 141.524 30.9705 141.749 32.0614C141.877 32.5748 141.941 33.1042 141.941 33.6497C141.941 35.9277 141.091 37.6443 139.39 38.7994H127.118V33.7459H135.925L130.775 26.1898C130.551 25.8368 130.198 25.3395 129.717 24.6978C129.267 24.0561 128.914 23.5427 128.658 23.1577C128.401 22.7406 128.225 22.4358 128.128 22.2432C128.032 22.0507 127.904 21.8101 127.743 21.5213C127.583 21.2005 127.471 20.9277 127.406 20.7031C127.278 20.0935 127.214 19.5962 127.214 19.2112C127.214 16.8689 128.353 15.2005 130.631 14.2058Z" fill="white"/>
<path d="M117.95 38.7994V14.2058H124.303V38.7994H117.95ZM121.126 0.984131L126.021 11.6068H116.231L121.126 0.984131Z" fill="white"/>
<path d="M94.8023 5.1095H107.604C109.626 5.78329 111.342 7.03463 112.754 8.86351C114.198 10.6603 114.92 12.8742 114.92 15.5052C114.92 19.8047 113.219 22.9651 109.818 24.9865L114.679 38.7993H107.941L103.85 26.5266H101.3V38.7993H94.8023V5.1095ZM101.3 10.8849V21.1362H105.439C105.984 21.0079 106.578 20.4624 107.219 19.4999C107.893 18.5052 108.23 17.3501 108.23 16.0346C108.23 14.7191 107.941 13.564 107.364 12.5694C106.818 11.5747 106.273 11.0132 105.727 10.8849H101.3Z" fill="white"/>
<path d="M81.2188 28.0667V19.2592H77.8979V14.2057H81.2188V7.51587H87.6199V14.2057H91.5664V19.2592H87.6199V29.6068C87.6199 31.564 87.9568 32.9437 88.6305 33.7458H91.5664V38.7993H84.7321C83.0316 37.2271 82.0049 35.5266 81.6519 33.6977C81.3632 32.1576 81.2188 30.2806 81.2188 28.0667Z" fill="white"/>
<path d="M69.5001 38.7993V14.2058H75.853V38.7993H69.5001ZM69.5001 5.1095H75.853V11.6068H69.5001V5.1095Z" fill="white"/>
<path d="M46.9112 5.1095H53.2641V15.9384C53.97 15.2967 54.6278 14.8475 55.2374 14.5908C55.8791 14.3341 56.8256 14.2058 58.0769 14.2058H61.9272C63.2748 15.5213 64.3336 17.2218 65.1037 19.3074C65.8737 21.3929 66.2588 23.687 66.2588 26.1897C66.2588 31.548 64.6545 35.7512 61.4459 38.7993H56.8737C55.3015 38.7993 53.986 38.2058 52.9272 37.0186L52.0609 38.7993H46.9112V5.1095ZM53.3122 33.7459H57.9326C59.1197 31.7245 59.7133 29.2699 59.7133 26.3822C59.7133 23.4945 59.1037 21.1202 57.8844 19.2592H53.3122V33.7459Z" fill="white"/>
<path d="M36.6732 27.6818H31.5234C30.8496 28.516 30.5127 29.5588 30.5127 30.8101C30.5127 32.0614 30.8657 33.04 31.5715 33.7459H36.6732V27.6818ZM26.3256 14.2058H38.2614C40.1865 15.3609 41.4539 16.6924 42.0635 18.2005C42.6732 19.6764 42.978 21.6978 42.978 24.2646V31.4839C42.978 34.147 43.0421 36.5855 43.1705 38.7994H37.6838L36.8175 37.0668C35.5662 38.2219 33.8015 38.7994 31.5234 38.7994H28.4913C25.7641 37.0026 24.4004 34.4197 24.4004 31.0507C24.4004 27.6497 25.7962 24.9705 28.5876 23.0133H33.1117C34.363 23.0133 35.5341 23.3983 36.625 24.1684V21.762C36.625 20.5106 36.0796 19.6764 34.9887 19.2593H26.3256V14.2058Z" fill="white"/>
<path d="M6.59358 38.7993H0V5.1095H6.59358V18.6817H14.2941V5.1095H20.8877V38.7993H14.2941V24.8421H6.59358V38.7993Z" fill="white"/>
</svg>
