<svg width="25" height="24" viewBox="0 0 25 24" fill="none" xmlns="http://www.w3.org/2000/svg">
<path d="M4.87502 21.8174C5.4776 22 6.29149 22 7.675 22H18.075C19.4585 22 20.2724 22 20.875 21.8174M4.87502 21.8174C4.74582 21.7783 4.62633 21.7308 4.51303 21.673C3.94854 21.3854 3.4896 20.9265 3.20198 20.362C2.875 19.7202 2.875 18.8802 2.875 17.2V6.8C2.875 5.11984 2.875 4.27976 3.20198 3.63803C3.4896 3.07354 3.94854 2.6146 4.51303 2.32698C5.15476 2 5.99484 2 7.675 2H18.075C19.7552 2 20.5952 2 21.237 2.32698C21.8015 2.6146 22.2604 3.07354 22.548 3.63803C22.875 4.27976 22.875 5.11984 22.875 6.8V17.2C22.875 18.8802 22.875 19.7202 22.548 20.362C22.2604 20.9265 21.8015 21.3854 21.237 21.673C21.1237 21.7308 21.0042 21.7783 20.875 21.8174M4.87502 21.8174C4.87535 21.0081 4.88021 20.5799 4.95186 20.2196C5.26749 18.6329 6.50788 17.3925 8.09464 17.0769C8.48103 17 8.94569 17 9.875 17H15.875C16.8043 17 17.269 17 17.6554 17.0769C19.2421 17.3925 20.4825 18.6329 20.7981 20.2196C20.8698 20.5799 20.8746 21.0081 20.875 21.8174M16.875 9.5C16.875 11.7091 15.0841 13.5 12.875 13.5C10.6659 13.5 8.875 11.7091 8.875 9.5C8.875 7.29086 10.6659 5.5 12.875 5.5C15.0841 5.5 16.875 7.29086 16.875 9.5Z" stroke="#64748B" stroke-width="2" stroke-linecap="round" stroke-linejoin="round"/>
</svg>
