<svg width="183" height="44" viewBox="0 0 183 44" fill="none" xmlns="http://www.w3.org/2000/svg">
<path d="M174.571 21.1815H170.518C169.978 21.8299 169.528 22.7304 169.167 23.8832C168.843 25.0359 168.681 26.1526 168.681 27.2332H176.408C176.48 26.1526 176.336 25.0359 175.976 23.8832C175.615 22.6944 175.147 21.7939 174.571 21.1815ZM181.919 37.4456V43.1191H168.195C165.673 41.4261 163.89 39.3368 162.845 36.8512C161.837 34.3297 161.332 31.7901 161.332 29.2325C161.332 23.3248 163.566 18.75 168.033 15.5079H176.786C179.2 17.273 180.839 19.1462 181.703 21.1274C182.568 23.1087 183 25.1079 183 27.1252C183 29.1424 182.838 30.8715 182.514 32.3124H169.059C169.167 33.1409 169.474 34.0955 169.978 35.1762C170.518 36.2208 171.095 36.9773 171.707 37.4456H181.919Z" fill="#DAD4FF"/>
<path d="M146.659 15.5079H158.601V21.1815H150.171L155.305 28.8002C157.61 32.0783 158.889 34.3297 159.141 35.5544C159.285 36.1308 159.357 36.7252 159.357 37.3375C159.357 39.8951 158.403 41.8223 156.493 43.1191H142.715V37.4456H152.603L146.821 28.9623C146.569 28.5661 146.173 28.0077 145.633 27.2873C145.128 26.5668 144.732 25.9905 144.444 25.5582C144.156 25.0899 143.958 24.7477 143.85 24.5316C143.741 24.3154 143.597 24.0453 143.417 23.7211C143.237 23.3608 143.111 23.0546 143.039 22.8025C142.895 22.1181 142.823 21.5597 142.823 21.1274C142.823 18.4978 144.102 16.6246 146.659 15.5079Z" fill="#DAD4FF"/>
<path d="M132.422 43.1192V15.508H139.554V43.1192H132.422ZM135.988 0.664062L141.484 12.5902H130.492L135.988 0.664062Z" fill="#DAD4FF"/>
<path d="M106.435 5.29553H120.807C123.077 6.052 125.004 7.45688 126.589 9.51016C128.21 11.5274 129.021 14.013 129.021 16.9668C129.021 21.7938 127.111 25.342 123.293 27.6114L128.75 43.1191H121.186L116.593 29.3405H113.729V43.1191H106.435V5.29553ZM113.729 11.7796V23.2887H118.376C118.988 23.1447 119.655 22.5323 120.375 21.4516C121.132 20.3349 121.51 19.0381 121.51 17.5612C121.51 16.0843 121.186 14.7874 120.537 13.6708C119.925 12.5541 119.313 11.9237 118.7 11.7796H113.729Z" fill="white"/>
<path d="M91.1843 31.0696V21.1814H87.456V15.5079H91.1843V7.99719H98.3708V15.5079H102.802V21.1814H98.3708V32.7987C98.3708 34.996 98.749 36.545 99.5055 37.4455H102.802V43.1191H95.1287C93.2196 41.354 92.0668 39.4448 91.6706 37.3915C91.3464 35.6624 91.1843 33.5551 91.1843 31.0696Z" fill="#DAD4FF"/>
<path d="M78.0277 43.1191V15.5079H85.1602V43.1191H78.0277ZM78.0277 5.29553H85.1602V12.5901H78.0277V5.29553Z" fill="#DAD4FF"/>
<path d="M52.6671 5.29553H59.7996V17.4531C60.5921 16.7327 61.3305 16.2283 62.015 15.9402C62.7354 15.652 63.7981 15.5079 65.2029 15.5079H69.5256C71.0386 16.9848 72.2273 18.894 73.0918 21.2355C73.9564 23.5769 74.3887 26.1525 74.3887 28.9623C74.3887 34.978 72.5875 39.697 68.9853 43.1191H63.8521C62.087 43.1191 60.6101 42.4527 59.4213 41.1199L58.4487 43.1191H52.6671V5.29553ZM59.8536 37.4456H65.0408C66.3737 35.1762 67.0401 32.4204 67.0401 29.1784C67.0401 25.9364 66.3557 23.2707 64.9868 21.1814H59.8536V37.4456Z" fill="#DAD4FF"/>
<path d="M41.1729 30.6374H35.3913C34.6349 31.5739 34.2566 32.7447 34.2566 34.1496C34.2566 35.5544 34.6529 36.6531 35.4454 37.4456H41.1729V30.6374ZM29.5557 15.5079H42.9561C45.1174 16.8047 46.5403 18.2997 47.2247 19.9927C47.9091 21.6498 48.2513 23.9192 48.2513 26.801V34.906C48.2513 37.8959 48.3234 40.6336 48.4675 43.1191H42.3076L41.335 41.1739C39.9302 42.4707 37.9489 43.1191 35.3913 43.1191H31.9872C28.9253 41.1019 27.3943 38.2021 27.3943 34.4197C27.3943 30.6013 28.9613 27.5935 32.0953 25.3961H37.1745C38.5793 25.3961 39.8941 25.8284 41.1189 26.6929V23.9912C41.1189 22.5863 40.5065 21.6498 39.2818 21.1815H29.5557V15.5079Z" fill="#DAD4FF"/>
<path d="M7.40261 43.1191H0V5.29553H7.40261V20.533H16.048V5.29553H23.4506V43.1191H16.048V27.4493H7.40261V43.1191Z" fill="#DAD4FF"/>
</svg>
