<svg width="48" height="48" viewBox="0 0 48 48" fill="none" xmlns="http://www.w3.org/2000/svg">
<g filter="url(#filter0_i_2269_3796)">
<path fill-rule="evenodd" clip-rule="evenodd" d="M36.8325 10.2512C35.4825 9.87621 34.08 10.6562 33.6915 12.0137C33.6444 12.1778 33.5655 12.331 33.4592 12.4646C33.3529 12.5982 33.2214 12.7095 33.0721 12.7922C32.9227 12.875 32.7586 12.9275 32.589 12.9468C32.4194 12.9661 32.2476 12.9518 32.0835 12.9047C31.9194 12.8576 31.7662 12.7787 31.6326 12.6724C31.4991 12.5661 31.3877 12.4346 31.305 12.2852C31.2223 12.1359 31.1697 11.9718 31.1504 11.8022C31.1311 11.6325 31.1454 11.4608 31.1925 11.2967C31.5653 9.99133 32.4382 8.88582 33.6215 8.22043C34.8049 7.55504 36.203 7.38354 37.512 7.74321C37.563 7.75521 37.665 7.78071 37.758 7.81221C41.4975 9.05871 41.7945 14.1332 38.4405 15.9872L30.9855 20.1122C30.8362 20.1948 30.6721 20.2473 30.5025 20.2665C30.3329 20.2857 30.1613 20.2713 29.9972 20.2241C29.8332 20.177 29.6801 20.098 29.5466 19.9917C29.4131 19.8853 29.3019 19.7538 29.2193 19.6045C29.1366 19.4551 29.0842 19.291 29.065 19.1215C29.0458 18.9519 29.0602 18.7802 29.1073 18.6162C29.1545 18.4522 29.2335 18.299 29.3398 18.1656C29.4461 18.0321 29.5777 17.9208 29.727 17.8382L37.182 13.7132C38.655 12.8987 38.4165 10.7792 36.9435 10.2812L36.9345 10.2782C36.9006 10.2688 36.8666 10.2598 36.8325 10.2512Z" fill="#FFD340"/>
<path fill-rule="evenodd" clip-rule="evenodd" d="M36.8325 10.2512C35.4825 9.87621 34.08 10.6562 33.6915 12.0137C33.6444 12.1778 33.5655 12.331 33.4592 12.4646C33.3529 12.5982 33.2214 12.7095 33.0721 12.7922C32.9227 12.875 32.7586 12.9275 32.589 12.9468C32.4194 12.9661 32.2476 12.9518 32.0835 12.9047C31.9194 12.8576 31.7662 12.7787 31.6326 12.6724C31.4991 12.5661 31.3877 12.4346 31.305 12.2852C31.2223 12.1359 31.1697 11.9718 31.1504 11.8022C31.1311 11.6325 31.1454 11.4608 31.1925 11.2967C31.5653 9.99133 32.4382 8.88582 33.6215 8.22043C34.8049 7.55504 36.203 7.38354 37.512 7.74321C37.563 7.75521 37.665 7.78071 37.758 7.81221C41.4975 9.05871 41.7945 14.1332 38.4405 15.9872L30.9855 20.1122C30.8362 20.1948 30.6721 20.2473 30.5025 20.2665C30.3329 20.2857 30.1613 20.2713 29.9972 20.2241C29.8332 20.177 29.6801 20.098 29.5466 19.9917C29.4131 19.8853 29.3019 19.7538 29.2193 19.6045C29.1366 19.4551 29.0842 19.291 29.065 19.1215C29.0458 18.9519 29.0602 18.7802 29.1073 18.6162C29.1545 18.4522 29.2335 18.299 29.3398 18.1656C29.4461 18.0321 29.5777 17.9208 29.727 17.8382L37.182 13.7132C38.655 12.8987 38.4165 10.7792 36.9435 10.2812L36.9345 10.2782C36.9006 10.2688 36.8666 10.2598 36.8325 10.2512Z" fill="url(#paint0_linear_2269_3796)"/>
<path fill-rule="evenodd" clip-rule="evenodd" d="M36.8325 10.2512C35.4825 9.87621 34.08 10.6562 33.6915 12.0137C33.6444 12.1778 33.5655 12.331 33.4592 12.4646C33.3529 12.5982 33.2214 12.7095 33.0721 12.7922C32.9227 12.875 32.7586 12.9275 32.589 12.9468C32.4194 12.9661 32.2476 12.9518 32.0835 12.9047C31.9194 12.8576 31.7662 12.7787 31.6326 12.6724C31.4991 12.5661 31.3877 12.4346 31.305 12.2852C31.2223 12.1359 31.1697 11.9718 31.1504 11.8022C31.1311 11.6325 31.1454 11.4608 31.1925 11.2967C31.5653 9.99133 32.4382 8.88582 33.6215 8.22043C34.8049 7.55504 36.203 7.38354 37.512 7.74321C37.563 7.75521 37.665 7.78071 37.758 7.81221C41.4975 9.05871 41.7945 14.1332 38.4405 15.9872L30.9855 20.1122C30.8362 20.1948 30.6721 20.2473 30.5025 20.2665C30.3329 20.2857 30.1613 20.2713 29.9972 20.2241C29.8332 20.177 29.6801 20.098 29.5466 19.9917C29.4131 19.8853 29.3019 19.7538 29.2193 19.6045C29.1366 19.4551 29.0842 19.291 29.065 19.1215C29.0458 18.9519 29.0602 18.7802 29.1073 18.6162C29.1545 18.4522 29.2335 18.299 29.3398 18.1656C29.4461 18.0321 29.5777 17.9208 29.727 17.8382L37.182 13.7132C38.655 12.8987 38.4165 10.7792 36.9435 10.2812L36.9345 10.2782C36.9006 10.2688 36.8666 10.2598 36.8325 10.2512Z" fill="url(#paint1_radial_2269_3796)"/>
</g>
<g filter="url(#filter1_i_2269_3796)">
<path fill-rule="evenodd" clip-rule="evenodd" d="M9.4605 7.74299C10.77 7.38294 12.1686 7.55441 13.3523 8.22014C14.536 8.88587 15.409 9.992 15.7815 11.298C15.8764 11.6294 15.8357 11.9849 15.6685 12.2863C15.5013 12.5877 15.2211 12.8104 14.8897 12.9052C14.5584 13.0001 14.2029 12.9595 13.9014 12.7922C13.6 12.625 13.3774 12.3449 13.2825 12.0135C13.1905 11.689 13.0352 11.3859 12.8254 11.1218C12.6156 10.8577 12.3556 10.6377 12.0603 10.4747C11.7651 10.3116 11.4404 10.2087 11.1051 10.1719C10.7699 10.135 10.4306 10.165 10.107 10.26C10.084 10.2653 10.061 10.2708 10.038 10.2765L10.029 10.2795C8.55599 10.7775 8.3175 12.897 9.7905 13.7115L17.2455 17.8365C17.3948 17.9191 17.5264 18.0304 17.6327 18.1638C17.739 18.2973 17.818 18.4504 17.8652 18.6145C17.9123 18.7785 17.9267 18.9502 17.9075 19.1197C17.8883 19.2893 17.8359 19.4534 17.7532 19.6027C17.6706 19.7521 17.5594 19.8836 17.4259 19.99C17.2924 20.0963 17.1393 20.1753 16.9753 20.2224C16.8113 20.2696 16.6396 20.284 16.47 20.2647C16.3004 20.2455 16.1363 20.1931 15.987 20.1105L8.532 15.9855C5.1795 14.1315 5.47649 9.05699 9.216 7.81049C9.3075 7.78049 9.411 7.75349 9.4605 7.74149" fill="#EAA73A"/>
<path fill-rule="evenodd" clip-rule="evenodd" d="M9.4605 7.74299C10.77 7.38294 12.1686 7.55441 13.3523 8.22014C14.536 8.88587 15.409 9.992 15.7815 11.298C15.8764 11.6294 15.8357 11.9849 15.6685 12.2863C15.5013 12.5877 15.2211 12.8104 14.8897 12.9052C14.5584 13.0001 14.2029 12.9595 13.9014 12.7922C13.6 12.625 13.3774 12.3449 13.2825 12.0135C13.1905 11.689 13.0352 11.3859 12.8254 11.1218C12.6156 10.8577 12.3556 10.6377 12.0603 10.4747C11.7651 10.3116 11.4404 10.2087 11.1051 10.1719C10.7699 10.135 10.4306 10.165 10.107 10.26C10.084 10.2653 10.061 10.2708 10.038 10.2765L10.029 10.2795C8.55599 10.7775 8.3175 12.897 9.7905 13.7115L17.2455 17.8365C17.3948 17.9191 17.5264 18.0304 17.6327 18.1638C17.739 18.2973 17.818 18.4504 17.8652 18.6145C17.9123 18.7785 17.9267 18.9502 17.9075 19.1197C17.8883 19.2893 17.8359 19.4534 17.7532 19.6027C17.6706 19.7521 17.5594 19.8836 17.4259 19.99C17.2924 20.0963 17.1393 20.1753 16.9753 20.2224C16.8113 20.2696 16.6396 20.284 16.47 20.2647C16.3004 20.2455 16.1363 20.1931 15.987 20.1105L8.532 15.9855C5.1795 14.1315 5.47649 9.05699 9.216 7.81049C9.3075 7.78049 9.411 7.75349 9.4605 7.74149" fill="url(#paint2_linear_2269_3796)"/>
</g>
<g filter="url(#filter2_i_2269_3796)">
<path d="M25.992 26.2802V19.9502H20.982V26.2802C20.982 27.3902 20.487 28.4552 19.632 29.1602L16.752 31.5602H30.222L27.342 29.1602C26.9205 28.8077 26.5812 28.3673 26.348 27.8698C26.1147 27.3722 25.9932 26.8297 25.992 26.2802Z" fill="url(#paint3_linear_2269_3796)"/>
<path d="M25.992 26.2802V19.9502H20.982V26.2802C20.982 27.3902 20.487 28.4552 19.632 29.1602L16.752 31.5602H30.222L27.342 29.1602C26.9205 28.8077 26.5812 28.3673 26.348 27.8698C26.1147 27.3722 25.9932 26.8297 25.992 26.2802Z" fill="url(#paint4_radial_2269_3796)"/>
</g>
<path d="M25.992 26.2802V19.9502H20.982V26.2802C20.982 27.3902 20.487 28.4552 19.632 29.1602L16.752 31.5602H30.222L27.342 29.1602C26.9205 28.8077 26.5812 28.3673 26.348 27.8698C26.1147 27.3722 25.9932 26.8297 25.992 26.2802Z" fill="url(#paint5_radial_2269_3796)"/>
<path d="M23.487 24.8251C20.7141 24.8251 18.0549 23.7236 16.0942 21.7629C14.1335 19.8022 13.032 17.143 13.032 14.3701V4.08014C13.032 3.49514 13.512 3.01514 14.097 3.01514H32.892C33.477 3.01514 33.957 3.49514 33.957 4.08014V14.3701C33.957 20.1451 29.277 24.8251 23.487 24.8251Z" fill="#EA873A"/>
<path d="M23.487 24.8251C20.7141 24.8251 18.0549 23.7236 16.0942 21.7629C14.1335 19.8022 13.032 17.143 13.032 14.3701V4.08014C13.032 3.49514 13.512 3.01514 14.097 3.01514H32.892C33.477 3.01514 33.957 3.49514 33.957 4.08014V14.3701C33.957 20.1451 29.277 24.8251 23.487 24.8251Z" fill="url(#paint6_radial_2269_3796)"/>
<path d="M23.487 24.8251C20.7141 24.8251 18.0549 23.7236 16.0942 21.7629C14.1335 19.8022 13.032 17.143 13.032 14.3701V4.08014C13.032 3.49514 13.512 3.01514 14.097 3.01514H32.892C33.477 3.01514 33.957 3.49514 33.957 4.08014V14.3701C33.957 20.1451 29.277 24.8251 23.487 24.8251Z" fill="url(#paint7_radial_2269_3796)"/>
<path d="M23.487 24.8251C20.7141 24.8251 18.0549 23.7236 16.0942 21.7629C14.1335 19.8022 13.032 17.143 13.032 14.3701V4.08014C13.032 3.49514 13.512 3.01514 14.097 3.01514H32.892C33.477 3.01514 33.957 3.49514 33.957 4.08014V14.3701C33.957 20.1451 29.277 24.8251 23.487 24.8251Z" fill="url(#paint8_radial_2269_3796)"/>
<g filter="url(#filter3_i_2269_3796)">
<path d="M33.867 31.5601H13.107C12.012 31.5601 11.082 32.3251 10.872 33.3901L8.57697 44.0251C8.47197 44.5201 8.84697 44.9851 9.35697 44.9851H37.632C38.142 44.9851 38.517 44.5201 38.412 44.0251L36.117 33.3901C35.892 32.3251 34.962 31.5601 33.867 31.5601Z" fill="url(#paint9_linear_2269_3796)"/>
<path d="M33.867 31.5601H13.107C12.012 31.5601 11.082 32.3251 10.872 33.3901L8.57697 44.0251C8.47197 44.5201 8.84697 44.9851 9.35697 44.9851H37.632C38.142 44.9851 38.517 44.5201 38.412 44.0251L36.117 33.3901C35.892 32.3251 34.962 31.5601 33.867 31.5601Z" fill="url(#paint10_linear_2269_3796)"/>
<path d="M33.867 31.5601H13.107C12.012 31.5601 11.082 32.3251 10.872 33.3901L8.57697 44.0251C8.47197 44.5201 8.84697 44.9851 9.35697 44.9851H37.632C38.142 44.9851 38.517 44.5201 38.412 44.0251L36.117 33.3901C35.892 32.3251 34.962 31.5601 33.867 31.5601Z" fill="url(#paint11_linear_2269_3796)"/>
</g>
<g filter="url(#filter4_f_2269_3796)">
<path d="M27.603 35.8262H18.573C18.048 35.8262 17.613 36.2462 17.613 36.7862V39.5012C17.613 40.0262 18.033 40.4612 18.573 40.4612H27.603C28.128 40.4612 28.563 40.0412 28.563 39.5012V36.7862C28.563 36.2612 28.143 35.8262 27.603 35.8262Z" fill="#914556"/>
</g>
<g filter="url(#filter5_i_2269_3796)">
<path d="M28.002 35.5503H18.972C18.447 35.5503 18.012 35.9703 18.012 36.5103V39.2253C18.012 39.7503 18.432 40.1853 18.972 40.1853H28.002C28.527 40.1853 28.962 39.7653 28.962 39.2253V36.5103C28.962 35.9853 28.542 35.5503 28.002 35.5503Z" fill="url(#paint12_linear_2269_3796)"/>
</g>
<defs>
<filter id="filter0_i_2269_3796" x="29.0568" y="7.37158" width="11.7153" height="12.9033" filterUnits="userSpaceOnUse" color-interpolation-filters="sRGB">
<feFlood flood-opacity="0" result="BackgroundImageFix"/>
<feBlend mode="normal" in="SourceGraphic" in2="BackgroundImageFix" result="shape"/>
<feColorMatrix in="SourceAlpha" type="matrix" values="0 0 0 0 0 0 0 0 0 0 0 0 0 0 0 0 0 0 127 0" result="hardAlpha"/>
<feOffset dy="-0.1875"/>
<feGaussianBlur stdDeviation="0.1875"/>
<feComposite in2="hardAlpha" operator="arithmetic" k2="-1" k3="1"/>
<feColorMatrix type="matrix" values="0 0 0 0 0.937255 0 0 0 0 0.576471 0 0 0 0 0.247059 0 0 0 1 0"/>
<feBlend mode="normal" in2="shape" result="effect1_innerShadow_2269_3796"/>
</filter>
<filter id="filter1_i_2269_3796" x="6.20178" y="7.37109" width="11.714" height="12.9019" filterUnits="userSpaceOnUse" color-interpolation-filters="sRGB">
<feFlood flood-opacity="0" result="BackgroundImageFix"/>
<feBlend mode="normal" in="SourceGraphic" in2="BackgroundImageFix" result="shape"/>
<feColorMatrix in="SourceAlpha" type="matrix" values="0 0 0 0 0 0 0 0 0 0 0 0 0 0 0 0 0 0 127 0" result="hardAlpha"/>
<feOffset dy="-0.1875"/>
<feGaussianBlur stdDeviation="0.1875"/>
<feComposite in2="hardAlpha" operator="arithmetic" k2="-1" k3="1"/>
<feColorMatrix type="matrix" values="0 0 0 0 0.854902 0 0 0 0 0.458824 0 0 0 0 0.286275 0 0 0 1 0"/>
<feBlend mode="normal" in2="shape" result="effect1_innerShadow_2269_3796"/>
</filter>
<filter id="filter2_i_2269_3796" x="16.752" y="19.9502" width="13.845" height="11.7974" filterUnits="userSpaceOnUse" color-interpolation-filters="sRGB">
<feFlood flood-opacity="0" result="BackgroundImageFix"/>
<feBlend mode="normal" in="SourceGraphic" in2="BackgroundImageFix" result="shape"/>
<feColorMatrix in="SourceAlpha" type="matrix" values="0 0 0 0 0 0 0 0 0 0 0 0 0 0 0 0 0 0 127 0" result="hardAlpha"/>
<feOffset dx="0.375" dy="0.1875"/>
<feGaussianBlur stdDeviation="0.1875"/>
<feComposite in2="hardAlpha" operator="arithmetic" k2="-1" k3="1"/>
<feColorMatrix type="matrix" values="0 0 0 0 0.843137 0 0 0 0 0.462745 0 0 0 0 0.215686 0 0 0 1 0"/>
<feBlend mode="normal" in2="shape" result="effect1_innerShadow_2269_3796"/>
</filter>
<filter id="filter3_i_2269_3796" x="8.55927" y="31.5601" width="30.3579" height="13.9123" filterUnits="userSpaceOnUse" color-interpolation-filters="sRGB">
<feFlood flood-opacity="0" result="BackgroundImageFix"/>
<feBlend mode="normal" in="SourceGraphic" in2="BackgroundImageFix" result="shape"/>
<feColorMatrix in="SourceAlpha" type="matrix" values="0 0 0 0 0 0 0 0 0 0 0 0 0 0 0 0 0 0 127 0" result="hardAlpha"/>
<feOffset dx="0.4875" dy="0.4875"/>
<feGaussianBlur stdDeviation="0.28125"/>
<feComposite in2="hardAlpha" operator="arithmetic" k2="-1" k3="1"/>
<feColorMatrix type="matrix" values="0 0 0 0 0.509804 0 0 0 0 0.270588 0 0 0 0 0.270588 0 0 0 1 0"/>
<feBlend mode="normal" in2="shape" result="effect1_innerShadow_2269_3796"/>
</filter>
<filter id="filter4_f_2269_3796" x="17.313" y="35.5262" width="11.55" height="5.23477" filterUnits="userSpaceOnUse" color-interpolation-filters="sRGB">
<feFlood flood-opacity="0" result="BackgroundImageFix"/>
<feBlend mode="normal" in="SourceGraphic" in2="BackgroundImageFix" result="shape"/>
<feGaussianBlur stdDeviation="0.15" result="effect1_foregroundBlur_2269_3796"/>
</filter>
<filter id="filter5_i_2269_3796" x="18.012" y="35.3628" width="11.1375" height="4.82227" filterUnits="userSpaceOnUse" color-interpolation-filters="sRGB">
<feFlood flood-opacity="0" result="BackgroundImageFix"/>
<feBlend mode="normal" in="SourceGraphic" in2="BackgroundImageFix" result="shape"/>
<feColorMatrix in="SourceAlpha" type="matrix" values="0 0 0 0 0 0 0 0 0 0 0 0 0 0 0 0 0 0 127 0" result="hardAlpha"/>
<feOffset dx="0.1875" dy="-0.1875"/>
<feGaussianBlur stdDeviation="0.15"/>
<feComposite in2="hardAlpha" operator="arithmetic" k2="-1" k3="1"/>
<feColorMatrix type="matrix" values="0 0 0 0 0.941176 0 0 0 0 0.533333 0 0 0 0 0.333333 0 0 0 1 0"/>
<feBlend mode="normal" in2="shape" result="effect1_innerShadow_2269_3796"/>
</filter>
<linearGradient id="paint0_linear_2269_3796" x1="33.354" y1="17.9162" x2="38.802" y2="13.0022" gradientUnits="userSpaceOnUse">
<stop stop-color="#FEC551"/>
<stop offset="1" stop-color="#FEC551" stop-opacity="0"/>
</linearGradient>
<radialGradient id="paint1_radial_2269_3796" cx="0" cy="0" r="1" gradientUnits="userSpaceOnUse" gradientTransform="translate(33.414 13.3577) rotate(-21.5519) scale(7.57571 6.97839)">
<stop offset="0.727" stop-color="#FFEC6A" stop-opacity="0"/>
<stop offset="1" stop-color="#FFEC6A"/>
</radialGradient>
<linearGradient id="paint2_linear_2269_3796" x1="14.3475" y1="11.9355" x2="10.617" y2="10.8705" gradientUnits="userSpaceOnUse">
<stop stop-color="#D27840"/>
<stop offset="1" stop-color="#D27840" stop-opacity="0"/>
</linearGradient>
<linearGradient id="paint3_linear_2269_3796" x1="25.4295" y1="29.6402" x2="17.8365" y2="29.6402" gradientUnits="userSpaceOnUse">
<stop stop-color="#FBC33A"/>
<stop offset="1" stop-color="#DB7B3C"/>
</linearGradient>
<radialGradient id="paint4_radial_2269_3796" cx="0" cy="0" r="1" gradientUnits="userSpaceOnUse" gradientTransform="translate(25.8525 25.7552) rotate(90) scale(3.135 2.85937)">
<stop offset="0.193" stop-color="#FFE469"/>
<stop offset="1" stop-color="#FFE469" stop-opacity="0"/>
</radialGradient>
<radialGradient id="paint5_radial_2269_3796" cx="0" cy="0" r="1" gradientUnits="userSpaceOnUse" gradientTransform="translate(29.0895 30.5272) rotate(149.162) scale(3.41239 5.18108)">
<stop stop-color="#FFD34D"/>
<stop offset="1" stop-color="#FFD34D" stop-opacity="0"/>
</radialGradient>
<radialGradient id="paint6_radial_2269_3796" cx="0" cy="0" r="1" gradientUnits="userSpaceOnUse" gradientTransform="translate(27.3045 4.70264) rotate(83.702) scale(18.6355 11.9664)">
<stop offset="0.121" stop-color="#FFFA73"/>
<stop offset="1" stop-color="#FFFA73" stop-opacity="0"/>
</radialGradient>
<radialGradient id="paint7_radial_2269_3796" cx="0" cy="0" r="1" gradientUnits="userSpaceOnUse" gradientTransform="translate(27.426 3.01514) rotate(90) scale(1.05651 11.8073)">
<stop stop-color="#FFF45B"/>
<stop offset="1" stop-color="#FFF45B" stop-opacity="0"/>
</radialGradient>
<radialGradient id="paint8_radial_2269_3796" cx="0" cy="0" r="1" gradientUnits="userSpaceOnUse" gradientTransform="translate(28.524 7.14014) rotate(121.572) scale(19.6966 18.8975)">
<stop offset="0.787" stop-color="#C55D73" stop-opacity="0"/>
<stop offset="1" stop-color="#C55D73"/>
</radialGradient>
<linearGradient id="paint9_linear_2269_3796" x1="8.55897" y1="38.2681" x2="38.424" y2="38.2681" gradientUnits="userSpaceOnUse">
<stop stop-color="#9D5B6C"/>
<stop offset="1" stop-color="#955569"/>
</linearGradient>
<linearGradient id="paint10_linear_2269_3796" x1="23.4945" y1="45.5686" x2="23.4945" y2="43.1296" gradientUnits="userSpaceOnUse">
<stop stop-color="#8C3A79"/>
<stop offset="1" stop-color="#8C3A79" stop-opacity="0"/>
</linearGradient>
<linearGradient id="paint11_linear_2269_3796" x1="37.305" y1="39.7981" x2="35.898" y2="40.1266" gradientUnits="userSpaceOnUse">
<stop stop-color="#B0817C"/>
<stop offset="1" stop-color="#B0817C" stop-opacity="0"/>
</linearGradient>
<linearGradient id="paint12_linear_2269_3796" x1="29.523" y1="37.8678" x2="18.012" y2="37.8678" gradientUnits="userSpaceOnUse">
<stop stop-color="#FFE767"/>
<stop offset="1" stop-color="#FEBB5B"/>
</linearGradient>
</defs>
</svg>
